<svg xmlns="http://www.w3.org/2000/svg" version="1.0" width="1102.000000pt" height="819.000000pt" viewBox="0 0 1102.000000 819.000000">
<g fill="none" stroke="none" transform="translate(0.000000,819.000000) scale(0.100000,-0.100000)">
<g fill="#111111">
  <path d="M6518 8035 c-2 -2 -1097 -5 -2433 -7 -1337 -2 -2737 -4 -3112 -6
l-683 -2 -2 -293 -3 -292 -43 -3 c-55 -4 -51 -26 6 -30 l41 -3 2 -297 c2 -500
2 -540 -4 -556 -4 -11 -19 -16 -47 -16 -22 0 -40 -4 -40 -9 0 -12 33 -23 51
-16 35 12 37 -5 39 -405 4 -513 9 -458 -42 -462 -59 -4 -63 -28 -4 -28 l46 0
1 -57 c0 -32 0 -218 0 -413 -1 -195 -1 -365 -1 -377 0 -20 -5 -23 -45 -23 -25
0 -45 -4 -45 -10 0 -5 20 -10 44 -10 l43 0 5 -387 c2 -214 2 -412 0 -440 l-4
-53 -44 0 c-24 0 -44 -4 -44 -10 0 -5 20 -10 43 -10 l44 0 6 -167 c8 -224 9
-647 1 -678 -5 -22 -12 -25 -50 -25 -32 0 -44 -4 -44 -15 0 -11 12 -15 44 -15
l45 0 6 -42 c5 -37 1 -677 -5 -790 -2 -38 -3 -38 -46 -38 -32 0 -44 -4 -44
-15 0 -11 12 -15 44 -15 31 0 46 -5 50 -16 8 -21 5 -780 -3 -819 -5 -27 -10
-30 -49 -33 -55 -4 -54 -22 2 -22 l43 0 7 -64 c3 -35 6 -230 6 -435 l-1 -371
-50 0 c-37 0 -49 -4 -49 -15 0 -13 38 -15 280 -15 l280 0 0 -45 c0 -33 4 -45
15 -45 11 0 15 12 15 44 l0 44 343 4 c188 3 513 4 722 4 l380 -1 3 -42 c2 -29
8 -43 18 -43 10 0 14 12 14 45 l0 45 720 0 720 0 1 -27 c1 -16 0 -38 -1 -50
-1 -17 3 -21 14 -17 9 4 16 22 18 47 l3 42 720 0 720 0 0 -39 c0 -22 5 -41 13
-43 8 -3 12 9 12 41 l0 46 725 0 725 0 0 -46 c0 -59 24 -55 28 4 l3 42 417 1
c229 1 552 2 717 2 l300 2 3 -48 c4 -63 26 -58 30 6 l3 47 720 0 719 0 2 -22
c0 -13 0 -33 -1 -45 -1 -17 4 -23 19 -23 11 0 19 3 19 8 -1 4 -1 24 0 45 l1
37 590 0 591 0 -2 3895 -1 3896 -2148 -1 c-1182 -1 -2150 -3 -2152 -5z m4270
-3886 c3 -3862 3 -3867 -18 -3872 -11 -3 -1262 -6 -2780 -6 -2253 -2 -2760 0
-2761 11 0 9 -2 9 -5 1 -4 -8 -154 -12 -587 -13 -320 0 -1097 -3 -1727 -5
-630 -3 -1300 -5 -1490 -5 -392 0 -610 -1 -619 -2 -3 0 -113 0 -243 1 l-238 1
0 3870 0 3870 1718 1 c944 0 2030 2 2412 2 621 2 695 0 694 -13 -1 -10 8 -17
22 -18 18 -1 24 3 24 18 0 20 12 20 1823 22 1002 2 2261 3 2797 3 l975 0 3
-3866z m-5608 3840 c0 -5 -4 -9 -10 -9 -5 0 -10 7 -10 16 0 8 5 12 10 9 6 -3
10 -10 10 -16z"/>
  <path d="M5148 7898 c-1 -35 0 -83 3 -108 4 -28 7 -34 7 -17 1 15 6 27 11 27
6 0 8 -9 6 -20 -2 -11 0 -18 4 -16 5 3 7 45 6 93 -3 109 -2 103 -19 103 -10 0
-15 -17 -18 -62z m25 37 c4 -8 2 -17 -3 -20 -6 -4 -10 3 -10 14 0 25 6 27 13
6z m-6 -92 c-3 -10 -5 -2 -5 17 0 19 2 27 5 18 2 -10 2 -26 0 -35z"/>
  <path d="M5175 7720 c3 -5 8 -10 11 -10 2 0 4 5 4 10 0 6 -5 10 -11 10 -5 0
-7 -4 -4 -10z"/>
  <path d="M5149 7698 c-6 -23 -7 -48 -1 -48 4 0 9 11 10 25 1 14 0 25 -3 25 -3
0 -5 -1 -6 -2z"/>
  <path d="M4928 7663 c7 -3 16 -2 19 1 4 3 -2 6 -13 5 -11 0 -14 -3 -6 -6z"/>
  <path d="M5170 7656 c0 -8 5 -18 10 -21 6 -3 10 3 10 14 0 12 -4 21 -10 21 -5
0 -10 -6 -10 -14z"/>
  <path d="M5179 7528 c-6 -21 -5 -38 2 -38 5 0 9 9 9 20 0 16 -7 28 -11 18z"/>
  <path d="M5175 7431 c-3 -5 -1 -12 5 -16 5 -3 10 1 10 9 0 18 -6 21 -15 7z"/>
  <path d="M5177 7375 c-4 -8 -2 -17 3 -20 6 -4 10 3 10 14 0 25 -6 27 -13 6z"/>
  <path d="M5177 7323 c-3 -5 -1 -17 4 -28 6 -17 7 -16 6 8 -1 28 -3 32 -10 20z"/>
  <path d="M5176 7242 c-2 -4 -1 -14 5 -22 7 -12 9 -10 9 8 0 23 -5 28 -14 14z"/>
  <path d="M5181 7164 c0 -11 3 -14 6 -6 3 7 2 16 -1 19 -3 4 -6 -2 -5 -13z"/>
  <path d="M5175 7111 c-3 -5 -2 -12 3 -15 5 -3 9 1 9 9 0 17 -3 19 -12 6z"/>
  <path d="M5177 7030 c-3 -11 -1 -23 4 -26 5 -3 9 6 9 20 0 31 -6 34 -13 6z"/>
  <path d="M5177 6970 c-3 -11 -1 -23 4 -26 5 -3 9 6 9 20 0 31 -6 34 -13 6z"/>
  <path d="M5181 6884 c0 -11 3 -14 6 -6 3 7 2 16 -1 19 -3 4 -6 -2 -5 -13z"/>
  <path d="M5176 6832 c-2 -4 -1 -14 4 -22 7 -11 9 -9 7 8 -1 24 -3 26 -11 14z"/>
  <path d="M5182 6745 c0 -16 2 -22 5 -12 2 9 2 23 0 30 -3 6 -5 -1 -5 -18z"/>
  <path d="M5182 6680 c0 -14 2 -19 5 -12 2 6 2 18 0 25 -3 6 -5 1 -5 -13z"/>
  <path d="M5175 6611 c-3 -5 -1 -12 5 -16 5 -3 10 1 10 9 0 18 -6 21 -15 7z"/>
  <path d="M5176 6552 c-2 -4 -1 -14 5 -22 7 -12 9 -10 9 8 0 23 -5 28 -14 14z"/>
  <path d="M5181 6474 c0 -11 3 -14 6 -6 3 7 2 16 -1 19 -3 4 -6 -2 -5 -13z"/>
  <path d="M5181 6404 c0 -11 3 -14 6 -6 3 7 2 16 -1 19 -3 4 -6 -2 -5 -13z"/>
  <path d="M5182 6330 c0 -14 2 -19 5 -12 2 6 2 18 0 25 -3 6 -5 1 -5 -13z"/>
  <path d="M5176 6272 c-2 -4 -1 -14 5 -22 7 -12 9 -10 9 8 0 23 -5 28 -14 14z"/>
  <path d="M5177 6205 c-4 -8 -2 -17 3 -20 6 -4 10 3 10 14 0 25 -6 27 -13 6z"/>
  <path d="M5182 6120 c0 -19 2 -27 5 -17 2 9 2 25 0 35 -3 9 -5 1 -5 -18z"/>
  <path d="M5182 6060 c0 -14 2 -19 5 -12 2 6 2 18 0 25 -3 6 -5 1 -5 -13z"/>
  <path d="M5182 5990 c0 -19 2 -27 5 -17 2 9 2 25 0 35 -3 9 -5 1 -5 -18z"/>
  <path d="M5181 5914 c0 -11 3 -14 6 -6 3 7 2 16 -1 19 -3 4 -6 -2 -5 -13z"/>
  <path d="M5181 5844 c0 -11 3 -14 6 -6 3 7 2 16 -1 19 -3 4 -6 -2 -5 -13z"/>
  <path d="M5176 5792 c-2 -4 -1 -14 5 -22 7 -12 9 -10 9 8 0 23 -5 28 -14 14z"/>
  <path d="M6141 5754 c0 -11 3 -14 6 -6 3 7 2 16 -1 19 -3 4 -6 -2 -5 -13z"/>
  <path d="M5182 5710 c0 -14 2 -19 5 -12 2 6 2 18 0 25 -3 6 -5 1 -5 -13z"/>
  <path d="M5182 5645 c0 -16 2 -22 5 -12 2 9 2 23 0 30 -3 6 -5 -1 -5 -18z"/>
  <path d="M5182 5575 c0 -16 2 -22 5 -12 2 9 2 23 0 30 -3 6 -5 -1 -5 -18z"/>
  <path d="M5175 5511 c-3 -5 -1 -12 5 -16 5 -3 10 1 10 9 0 18 -6 21 -15 7z"/>
  <path d="M5175 5441 c-3 -5 -1 -12 5 -16 5 -3 10 1 10 9 0 18 -6 21 -15 7z"/>
  <path d="M5182 5370 c0 -14 2 -19 5 -12 2 6 2 18 0 25 -3 6 -5 1 -5 -13z"/>
  <path d="M5182 5300 c0 -14 2 -19 5 -12 2 6 2 18 0 25 -3 6 -5 1 -5 -13z"/>
  <path d="M5182 5230 c0 -14 2 -19 5 -12 2 6 2 18 0 25 -3 6 -5 1 -5 -13z"/>
  <path d="M5182 5165 c0 -16 2 -22 5 -12 2 9 2 23 0 30 -3 6 -5 -1 -5 -18z"/>
  <path d="M5181 5104 c0 -11 3 -14 6 -6 3 7 2 16 -1 19 -3 4 -6 -2 -5 -13z"/>
  <path d="M5176 5032 c-2 -4 -1 -14 5 -22 7 -12 9 -10 9 8 0 23 -5 28 -14 14z"/>
  <path d="M5182 4960 c0 -14 2 -19 5 -12 2 6 2 18 0 25 -3 6 -5 1 -5 -13z"/>
  <path d="M5176 4902 c-2 -4 -1 -14 5 -22 7 -12 9 -10 9 8 0 23 -5 28 -14 14z"/>
  <path d="M5181 4824 c0 -11 3 -14 6 -6 3 7 2 16 -1 19 -3 4 -6 -2 -5 -13z"/>
  <path d="M5182 4750 c0 -14 2 -19 5 -12 2 6 2 18 0 25 -3 6 -5 1 -5 -13z"/>
  <path d="M5181 4674 c0 -11 3 -14 6 -6 3 7 2 16 -1 19 -3 4 -6 -2 -5 -13z"/>
  <path d="M5182 4615 c0 -16 2 -22 5 -12 2 9 2 23 0 30 -3 6 -5 -1 -5 -18z"/>
  <path d="M5182 4540 c0 -14 2 -19 5 -12 2 6 2 18 0 25 -3 6 -5 1 -5 -13z"/>
  <path d="M5182 4470 c0 -14 2 -19 5 -12 2 6 2 18 0 25 -3 6 -5 1 -5 -13z"/>
  <path d="M5181 4414 c0 -11 3 -14 6 -6 3 7 2 16 -1 19 -3 4 -6 -2 -5 -13z"/>
  <path d="M3762 4380 c0 -14 2 -19 5 -12 2 6 2 18 0 25 -3 6 -5 1 -5 -13z"/>
  <path d="M5182 4320 c0 -19 2 -27 5 -17 2 9 2 25 0 35 -3 9 -5 1 -5 -18z"/>
  <path d="M5181 4264 c0 -11 3 -14 6 -6 3 7 2 16 -1 19 -3 4 -6 -2 -5 -13z"/>
  <path d="M5182 4195 c0 -16 2 -22 5 -12 2 9 2 23 0 30 -3 6 -5 -1 -5 -18z"/>
  <path d="M5175 4121 c-3 -5 -2 -12 3 -15 5 -3 9 1 9 9 0 17 -3 19 -12 6z"/>
  <path d="M5181 4054 c0 -11 3 -14 6 -6 3 7 2 16 -1 19 -3 4 -6 -2 -5 -13z"/>
  <path d="M5182 3990 c0 -14 2 -19 5 -12 2 6 2 18 0 25 -3 6 -5 1 -5 -13z"/>
  <path d="M5182 3915 c0 -16 2 -22 5 -12 2 9 2 23 0 30 -3 6 -5 -1 -5 -18z"/>
  <path d="M5182 3845 c0 -16 2 -22 5 -12 2 9 2 23 0 30 -3 6 -5 -1 -5 -18z"/>
  <path d="M5182 3770 c0 -14 2 -19 5 -12 2 6 2 18 0 25 -3 6 -5 1 -5 -13z"/>
  <path d="M5183 3705 c0 -22 2 -30 4 -17 2 12 2 30 0 40 -3 9 -5 -1 -4 -23z"/>
  <path d="M5182 3640 c0 -14 2 -19 5 -12 2 6 2 18 0 25 -3 6 -5 1 -5 -13z"/>
  <path d="M5182 3565 c0 -16 2 -22 5 -12 2 9 2 23 0 30 -3 6 -5 -1 -5 -18z"/>
  <path d="M5182 3505 c0 -16 2 -22 5 -12 2 9 2 23 0 30 -3 6 -5 -1 -5 -18z"/>
  <path d="M5181 3424 c0 -11 3 -14 6 -6 3 7 2 16 -1 19 -3 4 -6 -2 -5 -13z"/>
  <path d="M5223 3360 c0 -25 2 -35 4 -22 2 12 2 32 0 45 -2 12 -4 2 -4 -23z"/>
  <path d="M5182 3360 c0 -14 2 -19 5 -12 2 6 2 18 0 25 -3 6 -5 1 -5 -13z"/>
  <path d="M5181 3294 c0 -11 3 -14 6 -6 3 7 2 16 -1 19 -3 4 -6 -2 -5 -13z"/>
  <path d="M5182 3230 c0 -14 2 -19 5 -12 2 6 2 18 0 25 -3 6 -5 1 -5 -13z"/>
  <path d="M5223 3165 c0 -27 2 -38 4 -22 2 15 2 37 0 50 -2 12 -4 0 -4 -28z"/>
  <path d="M5182 3160 c0 -14 2 -19 5 -12 2 6 2 18 0 25 -3 6 -5 1 -5 -13z"/>
  <path d="M5182 3085 c0 -16 2 -22 5 -12 2 9 2 23 0 30 -3 6 -5 -1 -5 -18z"/>
  <path d="M7332 3060 c0 -14 2 -19 5 -12 2 6 2 18 0 25 -3 6 -5 1 -5 -13z"/>
  <path d="M5175 3021 c-3 -5 -1 -12 5 -16 5 -3 10 1 10 9 0 18 -6 21 -15 7z"/>
  <path d="M5181 2944 c0 -11 3 -14 6 -6 3 7 2 16 -1 19 -3 4 -6 -2 -5 -13z"/>
  <path d="M5175 2891 c-3 -5 -1 -12 5 -16 5 -3 10 1 10 9 0 18 -6 21 -15 7z"/>
  <path d="M5182 2810 c0 -14 2 -19 5 -12 2 6 2 18 0 25 -3 6 -5 1 -5 -13z"/>
  <path d="M5222 2790 c0 -14 2 -19 5 -12 2 6 2 18 0 25 -3 6 -5 1 -5 -13z"/>
  <path d="M5182 2745 c0 -16 2 -22 5 -12 2 9 2 23 0 30 -3 6 -5 -1 -5 -18z"/>
  <path d="M5181 2664 c0 -11 3 -14 6 -6 3 7 2 16 -1 19 -3 4 -6 -2 -5 -13z"/>
  <path d="M5222 2660 c0 -14 2 -19 5 -12 2 6 2 18 0 25 -3 6 -5 1 -5 -13z"/>
  <path d="M5182 2600 c0 -14 2 -19 5 -12 2 6 2 18 0 25 -3 6 -5 1 -5 -13z"/>
  <path d="M5222 2595 c0 -16 2 -22 5 -12 2 9 2 23 0 30 -3 6 -5 -1 -5 -18z"/>
  <path d="M5181 2534 c0 -11 3 -14 6 -6 3 7 2 16 -1 19 -3 4 -6 -2 -5 -13z"/>
  <path d="M5182 2450 c0 -14 2 -19 5 -12 2 6 2 18 0 25 -3 6 -5 1 -5 -13z"/>
  <path d="M5182 2395 c0 -16 2 -22 5 -12 2 9 2 23 0 30 -3 6 -5 -1 -5 -18z"/>
  <path d="M5182 2320 c0 -14 2 -19 5 -12 2 6 2 18 0 25 -3 6 -5 1 -5 -13z"/>
  <path d="M2559 2289 c5 -6 7 -18 4 -25 -3 -8 -1 -14 5 -14 13 0 9 27 -6 40 -8
7 -9 7 -3 -1z"/>
  <path d="M5182 2250 c0 -14 2 -19 5 -12 2 6 2 18 0 25 -3 6 -5 1 -5 -13z"/>
  <path d="M5182 2180 c0 -19 2 -27 5 -17 2 9 2 25 0 35 -3 9 -5 1 -5 -18z"/>
  <path d="M5181 2104 c0 -11 3 -14 6 -6 3 7 2 16 -1 19 -3 4 -6 -2 -5 -13z"/>
  <path d="M5182 2055 c0 -16 2 -22 5 -12 2 9 2 23 0 30 -3 6 -5 -1 -5 -18z"/>
  <path d="M5221 2034 c0 -11 3 -14 6 -6 3 7 2 16 -1 19 -3 4 -6 -2 -5 -13z"/>
  <path d="M5181 1974 c0 -11 3 -14 6 -6 3 7 2 16 -1 19 -3 4 -6 -2 -5 -13z"/>
  <path d="M5181 1914 c0 -11 3 -14 6 -6 3 7 2 16 -1 19 -3 4 -6 -2 -5 -13z"/>
  <path d="M5183 1810 c0 -30 2 -43 4 -27 2 15 2 39 0 55 -2 15 -4 2 -4 -28z"/>
  <path d="M5222 1740 c0 -14 2 -19 5 -12 2 6 2 18 0 25 -3 6 -5 1 -5 -13z"/>
  <path d="M5183 1715 c0 -22 2 -30 4 -17 2 12 2 30 0 40 -3 9 -5 -1 -4 -23z"/>
  <path d="M5182 1640 c0 -19 2 -27 5 -17 2 9 2 25 0 35 -3 9 -5 1 -5 -18z"/>
  <path d="M5224 1540 c0 -52 1 -74 3 -47 2 26 2 68 0 95 -2 26 -3 4 -3 -48z"/>
  <path d="M5182 1555 c0 -16 2 -22 5 -12 2 9 2 23 0 30 -3 6 -5 -1 -5 -18z"/>
  <path d="M5182 1490 c0 -19 2 -27 5 -17 2 9 2 25 0 35 -3 9 -5 1 -5 -18z"/>
  <path d="M5182 1425 c0 -16 2 -22 5 -12 2 9 2 23 0 30 -3 6 -5 -1 -5 -18z"/>
  <path d="M5182 1355 c0 -16 2 -22 5 -12 2 9 2 23 0 30 -3 6 -5 -1 -5 -18z"/>
  <path d="M5182 1290 c0 -14 2 -19 5 -12 2 6 2 18 0 25 -3 6 -5 1 -5 -13z"/>
  <path d="M2308 1233 c7 -3 16 -2 19 1 4 3 -2 6 -13 5 -11 0 -14 -3 -6 -6z"/>
  <path d="M2373 1233 c9 -2 23 -2 30 0 6 3 -1 5 -18 5 -16 0 -22 -2 -12 -5z"/>
  <path d="M2448 1233 c7 -3 16 -2 19 1 4 3 -2 6 -13 5 -11 0 -14 -3 -6 -6z"/>
  <path d="M2508 1233 c7 -3 16 -2 19 1 4 3 -2 6 -13 5 -11 0 -14 -3 -6 -6z"/>
  <path d="M5182 1220 c0 -14 2 -19 5 -12 2 6 2 18 0 25 -3 6 -5 1 -5 -13z"/>
  <path d="M5176 1162 c-2 -4 -1 -14 5 -22 7 -12 9 -10 9 8 0 23 -5 28 -14 14z"/>
  <path d="M5182 1090 c0 -14 2 -19 5 -12 2 6 2 18 0 25 -3 6 -5 1 -5 -13z"/>
  <path d="M5182 1010 c0 -19 2 -27 5 -17 2 9 2 25 0 35 -3 9 -5 1 -5 -18z"/>
  <path d="M5223 955 c0 -38 2 -53 4 -32 2 20 2 52 0 70 -2 17 -4 1 -4 -38z"/>
  <path d="M5182 945 c0 -16 2 -22 5 -12 2 9 2 23 0 30 -3 6 -5 -1 -5 -18z"/>
  <path d="M5181 874 c0 -11 3 -14 6 -6 3 7 2 16 -1 19 -3 4 -6 -2 -5 -13z"/>
  <path d="M5182 800 c0 -14 2 -19 5 -12 2 6 2 18 0 25 -3 6 -5 1 -5 -13z"/>
  <path d="M1698 783 c7 -3 16 -2 19 1 4 3 -2 6 -13 5 -11 0 -14 -3 -6 -6z"/>
  <path d="M8455 780 c-3 -5 -1 -10 4 -10 6 0 11 5 11 10 0 6 -2 10 -4 10 -3 0
-8 -4 -11 -10z"/>
  <path d="M5177 753 c-2 -5 -1 -19 4 -33 7 -23 7 -23 8 8 1 31 -3 40 -12 25z"/>
  <path d="M5177 683 c-3 -5 -1 -17 4 -28 7 -17 8 -17 8 8 1 27 -4 34 -12 20z"/>
  <path d="M9116 645 c4 -8 8 -15 10 -15 2 0 4 7 4 15 0 8 -4 15 -10 15 -5 0 -7
-7 -4 -15z"/>
  <path d="M5182 600 c0 -14 2 -19 5 -12 2 6 2 18 0 25 -3 6 -5 1 -5 -13z"/>
  <path d="M5177 473 c-3 -5 -1 -17 4 -28 7 -17 8 -17 8 8 1 27 -4 34 -12 20z"/>
  <path d="M9121 424 c0 -11 3 -14 6 -6 3 7 2 16 -1 19 -3 4 -6 -2 -5 -13z"/>
  <path d="M5181 390 c0 -33 1 -34 11 -12 8 17 8 26 0 34 -9 9 -12 4 -11 -22z"/>
  <path d="M5180 328 c0 -19 2 -20 10 -8 13 19 13 30 0 30 -5 0 -10 -10 -10 -22z"/>
  <path d="M5221 324 c0 -11 3 -14 6 -6 3 7 2 16 -1 19 -3 4 -6 -2 -5 -13z"/>
  <path d="M9216 312 c-3 -4 4 -9 15 -9 23 -2 25 3 4 10 -8 4 -16 3 -19 -1z"/>
  <path d="M0 7511 c0 -5 10 -15 23 -24 19 -13 22 -23 21 -78 -1 -53 -5 -65 -23
-77 -11 -8 -21 -18 -21 -23 0 -17 37 -9 55 11 24 27 33 127 14 161 -7 13 -13
26 -12 29 1 3 -12 7 -28 8 -16 1 -29 -2 -29 -7z"/>
  <path d="M0 6614 c0 -3 10 -14 22 -24 17 -14 23 -30 24 -71 2 -53 -15 -97 -33
-86 -5 3 -10 -3 -10 -14 -2 -20 5 -23 32 -13 46 18 62 140 24 188 -18 23 -59
37 -59 20z"/>
  <path d="M0 5716 c0 -7 9 -16 19 -19 39 -10 39 -136 0 -160 -24 -15 -24 -27 0
-27 34 0 61 47 61 104 0 70 -8 92 -36 105 -33 15 -44 14 -44 -3z"/>
  <path d="M0 4827 c0 -8 9 -17 19 -20 39 -10 36 -148 -4 -163 -8 -4 -15 -12
-15 -20 0 -22 56 3 69 32 18 39 14 128 -6 152 -24 27 -63 39 -63 19z"/>
  <path d="M0 3922 c0 -4 8 -12 19 -19 37 -23 37 -151 0 -160 -11 -3 -19 -12
-19 -20 0 -20 39 -8 63 19 31 36 20 156 -17 180 -14 10 -46 10 -46 0z"/>
  <path d="M0 3030 c0 -5 7 -13 16 -18 36 -20 38 -143 3 -165 -24 -15 -24 -27
-1 -27 38 0 57 37 57 112 0 61 -3 72 -24 89 -25 20 -51 25 -51 9z"/>
  <path d="M0 2131 c0 -5 7 -11 14 -14 8 -3 20 -24 26 -46 13 -48 -1 -115 -25
-125 -8 -3 -15 -10 -15 -16 0 -19 31 -10 56 15 24 24 25 31 20 93 -6 85 -8 92
-17 86 -4 -2 -10 0 -14 6 -8 12 -45 13 -45 1z"/>
  <path d="M0 1235 c0 -8 7 -15 15 -15 19 0 38 -71 29 -115 -3 -20 -16 -42 -27
-50 -25 -18 -17 -30 16 -21 34 8 50 54 45 123 -4 43 -10 61 -28 75 -27 22 -50
23 -50 3z"/>
  <path d="M0 344 c0 -4 7 -12 16 -18 36 -27 38 -148 3 -167 -25 -13 -24 -29 0
-29 57 0 85 137 40 194 -18 23 -59 37 -59 20z"/>
  <path d="M8088 40 c-31 -19 -20 -31 22 -24 25 4 45 2 54 -6 8 -6 22 -10 31 -8
14 3 14 6 3 21 -16 22 -85 32 -110 17z"/>
  <path d="M9557 43 c-17 -16 -4 -25 27 -20 22 3 41 0 55 -10 12 -8 29 -13 39
-11 15 3 14 6 -6 26 -16 16 -34 22 -65 22 -24 0 -47 -3 -50 -7z"/>
  <path d="M855 31 c-32 -13 -14 -22 48 -26 60 -3 75 9 31 25 -29 12 -51 12 -79
1z"/>
  <path d="M2325 31 c-37 -15 -20 -23 50 -26 l70 -3 -24 19 c-24 20 -61 23 -96
10z"/>
  <path d="M3808 33 c-34 -9 -19 -28 22 -29 33 -1 40 2 40 17 0 19 -21 23 -62
12z"/>
  <path d="M5150 25 c-19 -22 -4 -31 26 -15 20 11 29 12 44 2 26 -16 40 -15 40
2 0 28 -88 37 -110 11z"/>
  <path d="M6615 29 c-9 -14 -7 -15 36 -23 31 -5 37 -3 42 14 4 17 0 20 -33 20
-22 0 -42 -5 -45 -11z"/>
</g>
<g fill="#101d91">
  <path d="M5160 8003 c0 -6 -3 -18 -6 -27 -4 -11 0 -16 12 -16 15 0 16 2 5 9
-8 5 -9 10 -2 12 7 3 7 9 1 19 -6 9 -10 10 -10 3z"/>
  <path d="M5190 4145 c0 -2782 3 -3866 11 -3871 6 -4 15 0 20 7 6 10 9 11 9 1
0 -10 511 -12 2543 -10 l2542 3 3 38 3 37 -295 0 c-176 0 -296 -4 -296 -9 0
-33 -25 -36 -316 -36 l-289 0 -1 168 c0 92 -5 172 -10 177 -6 6 -132 11 -294
12 l-285 3 -3 43 -3 42 -299 0 -299 0 -1 949 c0 522 -3 957 -6 965 -6 14 -39
16 -291 16 -157 -1 -287 1 -290 3 -2 2 -5 85 -7 183 -2 99 -4 187 -5 197 -1
16 -22 17 -296 17 l-295 0 0 1145 0 1145 -297 2 -297 3 -3 630 c-2 347 -5 636
-8 643 -3 9 -71 12 -295 12 l-290 0 -1 328 c0 180 0 403 0 495 l0 168 -165 -3
-164 -3 0 183 c0 156 -2 182 -15 182 -14 0 -15 -425 -15 -3865z m37 -807 c-2
-13 -4 -3 -4 22 0 25 2 35 4 23 2 -13 2 -33 0 -45z m0 -195 c-2 -16 -4 -5 -4
22 0 28 2 40 4 28 2 -13 2 -35 0 -50z m0 -365 c-3 -7 -5 -2 -5 12 0 14 2 19 5
13 2 -7 2 -19 0 -25z m0 -130 c-3 -7 -5 -2 -5 12 0 14 2 19 5 13 2 -7 2 -19 0
-25z m0 -65 c-3 -10 -5 -4 -5 12 0 17 2 24 5 18 2 -7 2 -21 0 -30z m0 -555
c-3 -8 -6 -5 -6 6 -1 11 2 17 5 13 3 -3 4 -12 1 -19z m0 -300 c-3 -7 -5 -2 -5
12 0 14 2 19 5 13 2 -7 2 -19 0 -25z m0 -235 c-2 -27 -3 -5 -3 47 0 52 1 74 3
48 2 -27 2 -69 0 -95z m0 -570 c-2 -21 -4 -6 -4 32 0 39 2 55 4 38 2 -18 2
-50 0 -70z m0 -605 c-3 -8 -6 -5 -6 6 -1 11 2 17 5 13 3 -3 4 -12 1 -19z"/>
  <path d="M5162 7930 c0 -14 2 -19 5 -12 2 6 2 18 0 25 -3 6 -5 1 -5 -13z"/>
  <path d="M5162 7860 c0 -19 2 -27 5 -17 2 9 2 25 0 35 -3 9 -5 1 -5 -18z"/>
  <path d="M5159 7775 c-1 -16 -2 -51 -2 -77 l0 -48 -99 0 c-86 0 -98 -2 -100
-17 -1 -10 -2 -94 -4 -188 -1 -93 -3 -178 -3 -187 -1 -15 -19 -16 -173 -17
-95 0 -228 0 -295 0 l-123 -1 0 -1025 c0 -969 -1 -1025 -17 -1026 -10 0 -141
-3 -292 -5 -151 -2 -277 -7 -280 -10 -3 -3 -6 -232 -6 -509 0 -277 -3 -506 -6
-509 -3 -3 -136 -7 -295 -8 l-289 -3 -3 -917 -2 -918 -298 -2 -297 -3 -3 -525
c-1 -289 -4 -531 -7 -538 -2 -7 -8 -12 -12 -11 -4 1 -135 1 -290 0 l-283 -1 0
-219 0 -218 -37 -6 c-21 -2 -135 -5 -253 -6 -118 0 -236 0 -262 -1 l-48 0 0
-155 0 -155 -247 -1 c-137 0 -272 0 -301 1 l-53 1 3 -108 c2 -73 7 -107 14
-106 11 2 229 3 339 2 137 -2 4007 13 4023 15 16 3 17 233 19 3737 1 2054 -2
3748 -7 3764 l-8 30 -3 -30z m-619 -7385 c0 -5 -4 -10 -10 -10 -5 0 -10 5 -10
10 0 6 5 10 10 10 6 0 10 -4 10 -10z"/>
  <path d="M293 5770 c0 -41 2 -58 4 -37 2 20 2 54 0 75 -2 20 -4 3 -4 -38z"/>
  <path d="M293 4005 c0 -44 2 -61 4 -37 2 23 2 59 0 80 -2 20 -4 1 -4 -43z"/>
  <path d="M293 3535 c0 -38 2 -53 4 -32 2 20 2 52 0 70 -2 17 -4 1 -4 -38z"/>
  <path d="M294 3365 c0 -55 1 -76 3 -47 2 29 2 74 0 100 -2 26 -3 2 -3 -53z"/>
  <path d="M294 3120 c0 -80 2 -112 3 -72 2 39 2 105 0 145 -1 39 -3 7 -3 -73z"/>
  <path d="M295 2525 c0 -198 1 -280 2 -183 2 97 2 259 0 360 -1 101 -2 21 -2
-177z"/>
  <path d="M295 1605 c0 -220 1 -309 2 -197 2 112 2 292 0 400 -1 108 -2 17 -2
-203z"/>
  <path d="M294 775 c0 -154 2 -216 3 -137 2 79 2 205 0 280 -1 75 -3 11 -3
-143z"/>
  <path d="M293 430 c0 -36 2 -50 4 -32 2 17 2 47 0 65 -2 17 -4 3 -4 -33z"/>
  <path d="M293 310 c0 -30 2 -43 4 -27 2 15 2 39 0 55 -2 15 -4 2 -4 -28z"/>
</g>
</g>
</svg>
