<svg xmlns="http://www.w3.org/2000/svg" version="1.0" width="628.000000pt" height="512.000000pt" viewBox="0 0 628.000000 512.000000">
<g fill="none" stroke="none" transform="translate(0.000000,512.000000) scale(0.100000,-0.100000)">
<g fill="#111111">
  <path d="M970 4962 c-180 -1 -268 -6 -275 -14 -7 -8 -6 -9 4 -3 9 5 12 4 7 -3
-11 -18 -26 -14 -27 6 0 10 -3 12 -6 5 -2 -7 -14 -13 -24 -13 -14 0 -18 4 -13
13 5 8 2 8 -9 -2 -14 -11 -17 -11 -17 0 0 10 -2 11 -8 2 -8 -13 -52 -14 -52
-1 0 4 -124 8 -275 8 l-275 0 0 -2395 c0 -1679 3 -2395 11 -2395 5 0 7 4 4 10
-3 5 -1 10 4 10 6 0 11 -8 11 -17 0 -15 2 -15 9 -4 5 8 16 11 26 8 9 -4 14 -3
10 3 -3 6 1 10 10 10 9 0 13 -4 10 -10 -6 -10 0 -12 45 -14 28 -1 50 13 44 29
-6 15 36 16 51 2 6 -7 10 -19 8 -27 -3 -10 0 -9 7 3 6 9 15 15 20 12 4 -3 20
-1 35 5 17 7 24 7 20 0 -3 -6 0 -10 9 -10 8 0 17 -6 19 -12 3 -8 6 -5 6 6 1
12 6 16 17 12 17 -6 149 -8 202 -2 19 3 32 0 32 -7 0 -7 5 -5 10 3 9 13 10 13
10 0 0 -11 2 -12 8 -3 4 7 21 11 37 9 17 -1 38 1 48 6 12 6 17 5 17 -7 0 -9
-4 -14 -8 -11 -4 2 -14 1 -22 -5 -11 -6 -8 -9 13 -9 21 0 27 5 27 23 0 18 2
19 10 7 6 -10 10 -11 10 -2 0 6 4 12 9 12 5 0 7 -9 4 -20 -3 -11 -1 -20 5 -20
5 0 9 6 8 13 0 6 4 12 9 12 6 0 10 -5 9 -10 -1 -6 12 -12 27 -13 23 -2 27 1
22 15 -4 11 -3 14 5 9 23 -14 59 -18 187 -21 79 -1 138 2 150 8 11 6 32 13 47
15 23 2 27 0 22 -15 -6 -15 -4 -15 9 2 9 11 17 16 17 10 0 -5 5 -3 11 5 9 12
10 11 6 -6 -4 -20 -2 -21 27 -12 17 6 43 12 59 15 23 5 26 3 21 -13 -5 -15 -4
-16 4 -5 14 20 42 23 35 5 -5 -14 16 -16 27 -3 3 4 21 9 40 13 23 4 28 3 15
-2 -18 -8 -17 -9 7 -14 15 -3 25 -2 23 2 -8 14 22 19 35 7 10 -9 11 -9 6 0 -5
9 7 11 45 8 28 -2 52 -5 54 -7 2 -2 41 -2 86 -1 45 1 91 -3 102 -9 15 -8 18
-7 11 4 -6 11 -5 11 8 0 11 -8 18 -9 23 -3 7 13 143 13 151 0 3 -5 11 -9 17
-9 7 0 6 4 -3 10 -10 6 -6 9 15 8 17 0 35 1 40 2 21 5 36 0 30 -10 -3 -6 -1
-10 4 -10 6 0 11 5 11 10 0 6 7 10 15 10 8 0 15 -6 15 -12 0 -10 2 -10 8 -1 4
6 20 15 35 18 20 6 27 4 27 -8 0 -12 15 -15 85 -14 90 2 102 13 20 20 -27 2
-23 2 10 0 33 -2 78 -4 100 -4 32 -1 36 -3 20 -10 -15 -7 -11 -8 15 -4 18 3
37 10 40 15 4 7 17 5 36 -5 31 -15 89 -16 113 -1 8 5 16 4 20 -2 4 -7 12 -8
21 -2 23 14 90 12 90 -2 0 -9 2 -10 8 -2 10 15 52 28 52 16 0 -6 7 -13 16 -16
10 -4 13 -2 8 6 -5 7 0 9 14 6 12 -4 20 -2 16 3 -3 5 2 9 11 9 10 0 13 -5 9
-12 -5 -7 -3 -8 6 -3 19 12 60 13 53 2 -3 -5 3 -7 13 -5 10 2 24 14 31 28 12
24 13 24 13 3 0 -12 4 -25 10 -28 6 -3 7 1 4 10 -5 11 -2 14 9 9 9 -3 14 -13
10 -22 -3 -11 -2 -13 4 -6 14 20 165 37 195 23 10 -5 28 -14 39 -20 17 -8 24
-8 30 3 7 10 9 10 9 -2 0 -10 3 -11 8 -4 4 6 32 12 62 14 82 3 102 1 116 -11
15 -12 56 -9 66 6 5 6 8 4 8 -5 0 -13 1 -13 10 0 6 9 26 15 59 15 28 0 51 3
51 6 0 10 54 5 62 -6 5 -6 8 -4 8 5 1 9 5 6 10 -7 5 -13 17 -23 27 -22 16 0
16 1 -2 9 -14 7 1 9 50 8 39 0 78 -5 89 -10 11 -6 16 -6 13 -1 -4 6 14 10 41
10 37 1 42 0 22 -7 -23 -7 -24 -8 -3 -9 12 -1 25 4 28 9 4 7 13 6 27 -1 15 -8
19 -8 14 0 -5 7 2 11 16 12 13 1 40 2 60 3 20 1 35 -1 33 -5 -3 -4 4 -9 15
-12 11 -3 20 -2 20 3 0 4 9 10 21 13 14 4 19 1 16 -7 -3 -6 4 -13 14 -13 11
-1 17 2 14 8 -4 5 3 9 14 9 12 0 21 -3 21 -7 0 -5 11 -8 24 -8 13 0 22 3 19 8
-2 4 16 7 41 7 30 0 46 -4 46 -12 0 -8 3 -9 8 -3 10 15 70 17 95 4 12 -7 19
-8 15 -4 -4 4 4 14 18 22 32 16 58 17 48 1 -5 -8 4 -9 34 -4 27 4 42 2 42 -4
0 -6 4 -9 9 -5 5 3 12 1 16 -4 6 -11 45 -10 45 1 0 4 14 8 30 8 17 0 30 -5 30
-12 0 -8 3 -9 8 -3 9 12 65 18 57 5 -6 -10 21 -7 31 3 10 10 26 9 20 -1 -2 -4
7 -8 22 -9 24 -2 24 -1 7 7 -17 7 -15 9 13 9 19 1 32 -4 32 -11 0 -10 2 -10 9
0 9 15 52 13 63 -3 5 -6 8 -5 8 3 0 16 47 16 53 0 4 -10 6 -10 6 0 1 16 38 16
44 0 3 -7 6 -3 6 9 1 24 14 37 25 26 4 -4 59 -8 122 -9 79 -1 119 -5 127 -14
10 -10 5 -11 -23 -6 -24 4 -30 3 -20 -4 8 -5 33 -9 56 -8 37 0 41 3 36 21 -4
16 -2 19 13 13 16 -6 16 -4 4 11 -13 15 -12 16 6 9 11 -5 28 -11 38 -13 9 -3
17 -10 17 -17 0 -6 5 -4 10 4 8 13 10 12 10 -2 0 -12 -8 -18 -21 -18 -13 0
-18 4 -13 13 5 9 4 9 -6 0 -21 -19 -5 -26 37 -18 21 4 32 10 26 12 -7 3 -13 9
-13 14 0 11 22 7 33 -6 5 -6 6 0 4 13 -5 22 -4 23 12 8 21 -19 162 -31 158
-14 -1 6 4 13 12 16 10 3 12 -2 7 -22 -5 -21 -3 -26 11 -26 14 0 15 2 5 9 -11
7 -11 11 0 22 9 9 13 33 12 69 -2 36 0 49 6 40 6 -9 10 -10 10 -3 0 6 -5 15
-10 18 -6 4 -7 12 -3 18 10 16 10 937 0 930 -8 -5 -2 40 8 57 3 5 0 10 -7 10
-9 0 -9 3 2 10 11 7 11 10 2 10 -9 0 -10 5 -2 19 7 14 6 21 -3 24 -9 4 -8 8 3
16 9 6 10 11 4 11 -7 0 -12 15 -12 35 0 20 5 35 12 35 6 0 4 5 -4 10 -13 9
-13 11 0 20 8 5 10 10 4 10 -6 0 -11 7 -11 16 0 10 7 14 19 11 10 -3 16 -1 12
4 -3 5 -12 9 -20 9 -9 0 -12 5 -8 12 9 14 14 339 5 334 -4 -3 -7 4 -7 15 0 11
5 18 13 15 7 -3 10 1 6 11 -3 8 0 19 8 24 8 5 9 9 4 9 -21 0 -24 128 -4 141
11 7 10 9 -4 9 -14 0 -16 5 -11 27 9 37 18 45 12 11 -3 -16 -1 -28 3 -28 15 0
11 227 -4 233 -8 3 -12 26 -11 73 2 94 4 103 14 79 5 -12 8 62 8 185 0 113 -4
189 -7 170 l-7 -35 -7 30 c-5 25 -4 82 3 120 2 6 6 -3 10 -20 9 -36 11 102 15
1165 l3 815 -2421 0 c-1332 0 -2541 -1 -2687 -3z m-632 -19 c-10 -2 -26 -2
-35 0 -10 3 -2 5 17 5 19 0 27 -2 18 -5z m49 1 c-3 -3 -12 -4 -19 -1 -8 3 -5
6 6 6 11 1 17 -2 13 -5z m40 0 c-3 -3 -12 -4 -19 -1 -8 3 -5 6 6 6 11 1 17 -2
13 -5z m40 0 c-3 -3 -12 -4 -19 -1 -8 3 -5 6 6 6 11 1 17 -2 13 -5z m3430 0
c-3 -3 -12 -4 -19 -1 -8 3 -5 6 6 6 11 1 17 -2 13 -5z m1223 -515 c0 -5 5 -7
11 -4 16 10 111 7 122 -4 10 -10 18 -120 10 -134 -7 -12 -6 -503 2 -538 5 -24
4 -30 -5 -24 -9 6 -11 4 -5 -5 4 -7 2 -16 -6 -21 -11 -7 -11 -9 -1 -9 7 0 11
-4 7 -9 -3 -5 -32 -10 -65 -10 -33 0 -64 -2 -69 -6 -13 -7 -42 5 -35 16 3 5 1
9 -4 9 -14 0 -13 733 1 742 17 11 37 10 37 -3z m938 -1384 c0 -14 -5 -25 -9
-25 -5 0 -8 13 -7 29 3 35 16 32 16 -4z m-1 -407 c-2 -13 -4 -3 -4 22 0 25 2
35 4 23 2 -13 2 -33 0 -45z m-2236 -218 c6 0 7 4 4 10 -4 7 3 7 20 0 35 -13
48 -13 39 2 -5 7 -3 8 5 4 7 -5 10 -14 7 -21 -3 -8 -1 -15 5 -17 5 -2 7 -17 3
-35 -4 -18 -10 -30 -15 -27 -5 3 -7 10 -4 15 4 5 1 9 -6 9 -6 0 -9 -8 -6 -20
3 -13 -1 -24 -13 -30 -27 -15 -50 -12 -50 5 0 15 25 21 33 8 2 -5 3 -3 2 2 -1
6 -19 10 -41 10 -37 0 -39 2 -36 28 2 16 -1 26 -6 23 -5 -3 -7 6 -4 20 3 19 7
22 13 12 7 -10 9 -10 9 2 0 13 1 13 10 0 8 -12 10 -12 11 5 0 11 3 14 6 8 2
-7 9 -13 14 -13z m2239 -130 c0 -44 -3 -80 -7 -80 -5 0 -8 36 -8 80 -1 44 3
80 7 80 4 0 8 -36 8 -80z m-5441 61 c8 -5 24 -6 37 -1 15 6 26 5 32 -3 6 -7
10 -152 9 -377 0 -201 3 -376 7 -389 6 -16 5 -21 -3 -17 -6 4 -11 2 -11 -5 0
-7 -3 -9 -6 -6 -4 3 -14 2 -23 -2 -9 -5 -35 -6 -59 -1 -23 4 -42 4 -42 0 0 -6
-31 -7 -65 -2 -18 3 -18 12 -15 422 1 184 -1 255 -10 258 -7 3 -4 9 7 19 10 8
13 12 6 9 -8 -4 -11 7 -10 39 2 50 3 51 67 54 24 1 46 4 49 7 6 6 14 5 30 -5z
m3494 -164 c-3 -5 3 -6 15 -3 12 4 23 2 28 -5 5 -8 3 -9 -5 -4 -8 4 -6 -4 4
-18 28 -44 26 -92 -6 -123 -15 -14 -32 -23 -37 -20 -6 4 -13 2 -16 -3 -4 -6
-23 -5 -49 3 -35 10 -44 18 -54 48 -10 29 -9 45 1 80 8 24 15 36 15 28 1 -12
3 -12 10 -2 5 8 24 17 42 21 46 10 59 9 52 -2z m1924 -159 c-3 -7 -5 -2 -5 12
0 14 2 19 5 13 2 -7 2 -19 0 -25z m7 -53 c-4 -8 -8 -15 -10 -15 -2 0 -4 7 -4
15 0 8 4 15 10 15 5 0 7 -7 4 -15z m-1686 -43 c8 -7 18 -9 24 -6 6 4 8 2 5 -3
-8 -13 17 -36 27 -26 4 4 4 -1 0 -11 -6 -15 -4 -17 7 -11 11 7 12 6 2 -6 -9
-11 -9 -19 -2 -26 7 -7 5 -14 -5 -22 -8 -7 -12 -20 -9 -28 4 -10 2 -14 -4 -10
-5 3 -17 -3 -26 -14 -23 -26 -63 -29 -114 -8 -34 14 -38 26 -35 98 2 37 26 71
49 71 8 0 12 4 9 9 -9 14 57 8 72 -7z m254 -234 c15 -1 24 -7 21 -12 -4 -5 1
-7 11 -3 9 4 14 3 11 -2 -3 -5 -1 -12 4 -15 5 -3 7 -15 4 -26 -3 -11 -1 -20 5
-20 8 0 8 -10 0 -32 -12 -35 -40 -68 -58 -68 -5 0 -10 -4 -10 -8 0 -4 -15 -8
-33 -8 -25 0 -42 9 -65 33 -17 18 -29 33 -27 33 3 0 0 12 -5 26 -8 21 -7 29 7
41 10 8 12 11 4 7 -9 -5 -7 2 5 18 10 14 22 24 27 21 4 -2 7 2 7 9 0 13 18 14
92 6z m-4047 -208 c3 -5 1 -10 -4 -10 -6 0 -11 5 -11 10 0 6 2 10 4 10 3 0 8
-4 11 -10z m4283 -43 c14 -9 7 -27 -11 -27 -7 0 -6 4 3 10 11 7 7 10 -18 10
-21 0 -43 -9 -63 -27 -25 -23 -29 -33 -27 -67 2 -31 9 -43 28 -53 18 -9 28 -9
38 -1 7 7 26 12 42 13 21 1 27 -2 23 -14 -3 -11 0 -10 11 3 9 11 12 22 7 26
-6 3 -6 11 -2 19 14 22 22 -18 9 -42 -7 -12 -12 -24 -11 -27 1 -3 -31 -6 -70
-6 -40 -1 -66 0 -59 3 10 4 10 8 1 19 -6 8 -16 11 -23 7 -6 -3 -8 -3 -4 2 4 4
4 13 -1 19 -15 20 -22 66 -10 66 8 0 8 4 -1 15 -10 12 -7 15 12 20 14 4 30 14
37 24 13 18 66 23 89 8z m-111 -3 c-3 -3 -12 -4 -19 -1 -8 3 -5 6 6 6 11 1 17
-2 13 -5z m170 -53 c1 -11 -4 -21 -11 -24 -9 -4 -13 0 -11 11 2 9 4 23 4 31 1
19 14 5 18 -18z m-81 -73 c4 -7 3 -10 -1 -5 -5 4 -17 0 -27 -10 -20 -18 -25
-10 -5 12 15 18 24 18 33 3z m-4716 -1048 c12 -8 9 -10 -13 -10 -16 0 -26 4
-22 10 8 12 16 12 35 0z m-82 -35 c-3 -3 -9 2 -12 12 -6 14 -5 15 5 6 7 -7 10
-15 7 -18z m392 17 c0 -5 -7 -9 -15 -9 -8 0 -12 4 -9 9 3 4 9 8 15 8 5 0 9 -4
9 -8z m40 -8 c0 -2 -7 -4 -15 -4 -8 0 -15 4 -15 10 0 5 7 7 15 4 8 -4 15 -8
15 -10z m40 8 c0 -5 -7 -9 -15 -9 -8 0 -15 4 -15 9 0 4 7 8 15 8 8 0 15 -4 15
-8z m40 -2 c-8 -5 -19 -10 -25 -10 -5 0 -3 5 5 10 8 5 20 10 25 10 6 0 3 -5
-5 -10z m200 -2 c0 -4 -7 -8 -15 -8 -8 0 -15 4 -15 8 0 5 7 9 15 9 8 0 15 -4
15 -9z m40 4 c0 -5 -7 -9 -15 -9 -8 0 -15 4 -15 9 0 4 7 8 15 8 8 0 15 -4 15
-8z m280 -2 c0 -5 -2 -10 -4 -10 -3 0 -8 5 -11 10 -3 6 -1 10 4 10 6 0 11 -4
11 -10z m50 -6 c0 -2 -9 -4 -20 -4 -11 0 -20 4 -20 9 0 5 9 7 20 4 11 -3 20
-7 20 -9z m4288 1 c3 -3 -7 -5 -21 -5 -15 0 -27 4 -27 9 0 10 38 7 48 -4z
m608 -5 c0 -11 -4 -20 -8 -20 -10 0 -11 24 -1 33 9 9 9 10 9 -13z m-5183 3
c-7 -2 -19 -2 -25 0 -7 3 -2 5 12 5 14 0 19 -2 13 -5z m1524 1 c-3 -3 -12 -4
-19 -1 -8 3 -5 6 6 6 11 1 17 -2 13 -5z m110 0 c-3 -3 -12 -4 -19 -1 -8 3 -5
6 6 6 11 1 17 -2 13 -5z m-1537 -23 c0 -10 -26 -9 -36 2 -4 4 2 7 14 7 12 0
22 -4 22 -9z m37 3 c-3 -3 -12 -4 -19 -1 -8 3 -5 6 6 6 11 1 17 -2 13 -5z
m1753 -6 c0 -5 -13 -7 -30 -6 -16 1 -30 6 -30 10 0 5 14 7 30 6 17 -1 30 -6
30 -10z m60 0 c0 -4 -7 -8 -15 -8 -8 0 -15 4 -15 8 0 5 7 9 15 9 8 0 15 -4 15
-9z m-2340 -8 c0 -5 -4 -10 -9 -10 -6 0 -13 5 -16 10 -3 6 1 10 9 10 9 0 16
-4 16 -10z m60 2 c0 -4 -11 -9 -25 -10 -14 -1 -25 2 -25 6 0 4 11 9 25 10 14
1 25 -2 25 -6z m50 -3 c0 -5 -9 -9 -20 -9 -11 0 -20 4 -20 8 0 4 9 8 20 9 11
1 20 -2 20 -8z m540 -19 c0 -5 -7 -10 -15 -10 -8 0 -15 5 -15 10 0 6 7 10 15
10 8 0 15 -4 15 -10z m280 -6 c0 -2 -7 -4 -15 -4 -8 0 -15 4 -15 10 0 5 7 7
15 4 8 -4 15 -8 15 -10z m-222 -1 c-10 -2 -26 -2 -35 0 -10 3 -2 5 17 5 19 0
27 -2 18 -5z"/>
  <path d="M3817 2408 c-9 -7 -18 -26 -21 -43 -6 -30 -6 -30 6 3 6 17 17 32 24
32 8 0 14 5 14 10 0 13 -3 13 -23 -2z"/>
  <path d="M3860 2400 c-9 -6 -10 -10 -3 -10 6 0 15 5 18 10 8 12 4 12 -15 0z"/>
  <path d="M3775 2390 c3 -5 8 -10 11 -10 2 0 4 5 4 10 0 6 -5 10 -11 10 -5 0
-7 -4 -4 -10z"/>
  <path d="M206 184 c-4 -9 -4 -19 -1 -22 3 -3 5 0 5 7 0 7 4 9 10 6 6 -3 7 1 4
9 -8 20 -10 20 -18 0z"/>
  <path d="M5360 178 c0 -16 11 -18 94 -18 52 0 97 4 100 9 3 5 -35 8 -87 6 -59
-1 -95 2 -99 9 -5 7 -8 4 -8 -6z"/>
  <path d="M5837 173 c-3 -5 11 -9 32 -10 27 -1 31 1 16 7 -26 11 -43 12 -48 3z"/>
  <path d="M3978 163 c6 -2 18 -2 25 0 6 3 1 5 -13 5 -14 0 -19 -2 -12 -5z"/>
</g>
<g fill="#7f4221">
  <path d="M550 4952 c0 -4 11 -9 25 -10 14 -1 25 2 25 6 0 4 -11 9 -25 10 -14
1 -25 -2 -25 -6z"/>
  <path d="M610 4951 c0 -4 14 -8 30 -9 17 -1 30 1 30 5 0 5 -13 9 -30 9 -16 1
-30 -1 -30 -5z"/>
  <path d="M680 4945 c0 -9 5 -15 10 -13 12 4 11 16 -1 24 -5 3 -9 -2 -9 -11z"/>
  <path d="M303 4943 c9 -2 25 -2 35 0 9 3 1 5 -18 5 -19 0 -27 -2 -17 -5z"/>
  <path d="M368 4943 c7 -3 16 -2 19 1 4 3 -2 6 -13 5 -11 0 -14 -3 -6 -6z"/>
  <path d="M408 4943 c7 -3 16 -2 19 1 4 3 -2 6 -13 5 -11 0 -14 -3 -6 -6z"/>
  <path d="M448 4943 c7 -3 16 -2 19 1 4 3 -2 6 -13 5 -11 0 -14 -3 -6 -6z"/>
  <path d="M3878 4943 c7 -3 16 -2 19 1 4 3 -2 6 -13 5 -11 0 -14 -3 -6 -6z"/>
  <path d="M6073 4860 c0 -47 2 -66 4 -42 2 23 2 61 0 85 -2 23 -4 4 -4 -43z"/>
  <path d="M5083 4432 c-14 -9 -15 -742 -1 -742 5 0 7 -4 4 -9 -7 -11 22 -23 35
-16 5 4 36 6 69 6 33 0 62 5 65 10 4 5 0 9 -7 9 -10 0 -10 2 1 9 8 5 10 14 6
21 -6 9 -4 11 5 5 9 -6 10 0 5 24 -8 35 -9 526 -2 538 8 14 0 124 -10 134 -11
11 -106 14 -122 4 -6 -3 -11 -1 -11 4 0 13 -20 14 -37 3z"/>
  <path d="M6042 3049 c-1 -16 2 -29 7 -29 10 0 12 48 2 54 -4 3 -8 -9 -9 -25z"/>
  <path d="M6051 3005 c-9 -44 -9 -108 -2 -127 9 -22 10 -22 12 7 1 17 2 39 3
50 2 22 -10 86 -13 70z"/>
  <path d="M6053 2660 c0 -25 2 -35 4 -22 2 12 2 32 0 45 -2 12 -4 2 -4 -23z"/>
  <path d="M6048 2530 c-9 -48 -3 -143 10 -148 14 -4 16 118 3 153 -7 18 -8 17
-13 -5z"/>
  <path d="M3801 2425 c-1 -17 -3 -17 -11 -5 -9 13 -10 13 -10 0 0 -12 -2 -12
-9 -2 -6 10 -10 7 -13 -12 -3 -14 -1 -23 4 -20 5 3 8 -7 6 -23 -3 -26 -1 -28
36 -28 22 0 40 -4 41 -10 1 -5 0 -7 -2 -2 -8 13 -33 7 -33 -8 0 -17 23 -20 50
-5 12 6 16 17 13 30 -3 12 0 20 6 20 7 0 10 -4 6 -9 -3 -5 -1 -12 4 -15 5 -3
11 9 15 27 4 18 2 33 -3 35 -6 2 -8 9 -5 17 3 7 0 16 -7 21 -8 4 -10 3 -5 -4
9 -15 -4 -15 -39 -2 -17 7 -24 7 -20 0 3 -6 2 -10 -4 -10 -5 0 -12 6 -14 13
-3 6 -6 3 -6 -8z m39 -15 c0 -5 -6 -10 -14 -10 -7 0 -18 -15 -24 -32 -12 -33
-12 -33 -6 -3 6 34 44 73 44 45z m35 -10 c-3 -5 -12 -10 -18 -10 -7 0 -6 4 3
10 19 12 23 12 15 0z m-85 -10 c0 -5 -2 -10 -4 -10 -3 0 -8 5 -11 10 -3 6 -1
10 4 10 6 0 11 -4 11 -10z"/>
  <path d="M6045 2290 c0 -44 3 -80 8 -80 4 0 7 36 7 80 0 44 -4 80 -8 80 -4 0
-8 -36 -7 -80z"/>
  <path d="M589 2356 c-3 -3 -25 -6 -49 -7 -64 -3 -65 -4 -67 -54 -1 -32 2 -43
10 -39 7 3 4 -1 -6 -9 -11 -10 -14 -16 -7 -19 9 -3 11 -74 10 -258 -3 -410 -3
-419 15 -422 34 -5 65 -4 65 2 0 4 19 4 42 0 24 -5 50 -4 59 1 9 4 19 5 23 2
3 -3 6 -1 6 6 0 7 5 9 11 5 8 -4 9 1 3 17 -4 13 -7 188 -7 389 1 225 -3 370
-9 377 -6 8 -17 9 -32 3 -13 -5 -29 -4 -37 1 -16 10 -24 11 -30 5z"/>
  <path d="M4061 2189 c-18 -4 -37 -13 -42 -21 -7 -10 -9 -10 -10 2 0 8 -7 -4
-15 -28 -10 -35 -11 -51 -1 -80 10 -30 19 -38 54 -48 26 -8 45 -9 49 -3 3 5
10 7 16 3 5 -3 22 6 37 20 32 31 34 79 6 123 -10 14 -12 22 -4 18 8 -5 10 -4
5 4 -5 7 -16 9 -28 5 -12 -3 -18 -2 -15 3 7 11 -6 12 -52 2z"/>
  <path d="M6050 2186 c0 -8 -3 -21 -6 -30 -4 -11 -1 -16 12 -15 11 0 14 3 8 5
-6 3 -9 16 -6 29 2 14 2 25 -2 25 -3 0 -6 -6 -6 -14z"/>
  <path d="M6046 2105 c-4 -14 -4 -29 -2 -34 3 -4 6 -24 8 -44 4 -64 17 -40 17
33 0 70 -11 92 -23 45z"/>
  <path d="M6032 2040 c0 -14 2 -19 5 -12 2 6 2 18 0 25 -3 6 -5 1 -5 -13z"/>
  <path d="M6030 1973 c0 -14 2 -15 9 -5 6 11 9 9 13 -6 4 -13 2 -19 -6 -16 -6
2 -12 -4 -12 -15 0 -11 3 -18 7 -15 8 5 4 -319 -4 -333 -4 -6 2 -13 13 -16 18
-5 19 3 20 203 0 182 -2 208 -16 214 -23 9 -24 8 -24 -11z"/>
  <path d="M4286 1939 c3 -5 -1 -9 -9 -9 -23 0 -47 -34 -49 -71 -3 -72 1 -84 35
-98 51 -21 91 -18 114 8 9 11 21 17 26 14 6 -4 8 0 4 10 -3 8 1 21 9 28 10 8
12 15 5 22 -7 7 -7 15 2 26 10 12 9 13 -2 6 -11 -6 -13 -4 -7 11 4 10 4 15 0
11 -10 -10 -35 13 -27 26 3 5 1 7 -5 3 -6 -3 -16 -1 -24 6 -15 15 -81 21 -72
7z"/>
  <path d="M4520 1692 c0 -7 -3 -11 -7 -9 -5 3 -17 -7 -27 -21 -12 -16 -14 -23
-5 -18 8 4 6 1 -4 -7 -14 -12 -15 -20 -7 -41 5 -14 8 -26 5 -26 -2 0 10 -15
27 -33 23 -24 40 -33 65 -33 18 0 33 4 33 8 0 4 5 8 10 8 18 0 46 33 58 68 8
22 8 32 0 32 -6 0 -8 9 -5 20 3 11 1 23 -4 26 -5 3 -7 10 -4 15 3 5 -2 6 -11
2 -10 -4 -15 -2 -11 3 3 5 -6 11 -21 12 -74 8 -92 7 -92 -6z"/>
  <path d="M6033 1545 c0 -8 5 -15 11 -15 6 0 4 -5 -4 -10 -13 -9 -13 -11 0 -20
8 -5 10 -10 4 -10 -7 0 -12 -15 -12 -35 0 -20 5 -35 12 -35 6 0 5 -5 -4 -11
-11 -8 -12 -12 -3 -16 9 -3 10 -10 3 -24 -8 -14 -7 -19 2 -19 9 0 9 -3 -2 -10
-11 -7 -11 -10 -2 -10 7 0 10 -5 7 -10 -10 -17 -16 -62 -8 -57 10 7 10 -914 0
-930 -4 -6 -3 -14 3 -18 5 -3 10 -12 10 -18 0 -7 -4 -6 -10 3 -6 9 -8 -4 -6
-40 1 -36 -3 -60 -12 -69 -11 -11 -11 -15 0 -22 10 -7 9 -9 -5 -9 -14 0 -16 5
-11 26 5 20 3 25 -7 22 -8 -3 -13 -10 -12 -16 4 -17 -137 -5 -158 14 -16 15
-17 14 -12 -8 2 -13 1 -19 -4 -13 -11 13 -33 17 -33 6 0 -5 6 -11 13 -14 6 -2
-5 -8 -26 -12 -42 -8 -58 -1 -37 18 10 9 11 9 6 0 -5 -9 0 -13 13 -13 13 0 21
6 21 18 0 14 -2 15 -10 2 -5 -8 -10 -10 -10 -4 0 7 -8 14 -17 17 -10 2 -27 8
-38 13 -18 7 -19 6 -6 -9 12 -15 12 -17 -4 -11 -15 6 -17 3 -13 -13 5 -18 1
-21 -36 -21 -23 -1 -48 3 -56 8 -10 7 -4 8 20 4 28 -5 33 -4 23 6 -8 9 -48 13
-125 14 -62 1 -118 5 -124 9 -15 9 -24 -1 -25 -27 0 -12 -3 -15 -6 -8 -2 6
-13 12 -23 12 -10 0 -21 -6 -23 -12 -4 -10 -6 -10 -6 0 -1 6 -12 12 -26 12
-14 0 -25 -6 -25 -12 0 -8 -3 -9 -8 -3 -11 16 -54 18 -63 3 -7 -10 -9 -10 -9
0 0 6 -12 12 -28 12 -15 0 -34 -6 -41 -12 -11 -10 -13 -10 -7 0 4 6 3 12 -1
12 -5 0 -15 -6 -22 -12 -11 -11 -12 -10 -6 2 8 13 7 13 -10 0 -10 -8 -16 -10
-12 -3 9 15 -44 13 -55 -2 -5 -6 -8 -5 -8 3 0 7 -13 12 -30 12 -16 0 -30 -4
-30 -8 0 -4 -9 -8 -20 -9 -11 -1 -18 2 -15 7 3 5 -4 7 -15 5 -11 -2 -20 0 -20
6 0 5 -17 6 -42 3 -30 -5 -39 -4 -34 4 10 16 -16 15 -48 -1 -14 -8 -22 -18
-18 -22 4 -4 -3 -3 -15 4 -25 13 -85 11 -95 -4 -5 -6 -8 -5 -8 3 0 8 -16 12
-46 12 -25 0 -43 -3 -41 -7 3 -5 -6 -8 -19 -8 -13 0 -24 3 -24 8 0 4 -9 7 -21
7 -11 0 -18 -4 -14 -9 3 -6 -3 -9 -14 -8 -10 0 -17 7 -14 13 3 8 -2 11 -16 7
-12 -3 -21 -9 -21 -13 0 -5 -9 -6 -20 -3 -11 3 -18 8 -15 12 2 4 -13 6 -33 5
-20 -1 -47 -2 -60 -3 -14 -1 -21 -5 -16 -12 5 -8 1 -8 -14 0 -14 7 -23 8 -27
1 -3 -5 -16 -10 -28 -9 -21 1 -20 2 3 9 20 7 15 8 -22 7 -27 0 -45 -4 -41 -10
3 -5 -2 -5 -13 1 -11 5 -50 10 -89 10 -49 1 -64 -1 -50 -8 18 -8 18 -9 2 -9
-10 -1 -22 9 -27 21 -5 14 -9 17 -10 8 0 -9 -3 -11 -8 -5 -8 11 -62 16 -62 6
0 -3 -23 -6 -51 -6 -33 0 -53 -6 -59 -15 -9 -13 -10 -13 -10 0 0 9 -3 11 -8 5
-11 -15 -51 -18 -68 -4 -8 6 -37 11 -67 9 -28 -1 -63 -1 -76 -1 -14 1 -28 -5
-33 -11 -6 -10 -8 -9 -8 2 0 12 -2 12 -9 2 -6 -11 -13 -11 -30 -3 -11 6 -29
15 -39 20 -30 14 -181 -3 -195 -23 -6 -7 -7 -5 -4 6 4 9 -1 19 -10 22 -11 5
-14 2 -9 -9 3 -9 2 -13 -4 -10 -6 3 -10 16 -10 28 0 21 -1 21 -13 -3 -7 -14
-21 -26 -31 -28 -10 -2 -16 0 -13 5 7 11 -34 10 -53 -2 -9 -5 -11 -4 -6 3 4 7
1 12 -9 12 -9 0 -14 -4 -11 -9 4 -5 -4 -7 -16 -3 -14 3 -19 1 -14 -6 5 -8 2
-10 -8 -6 -9 3 -16 10 -16 16 0 12 -42 -1 -52 -16 -6 -8 -8 -7 -8 2 0 14 -67
16 -90 2 -9 -6 -17 -5 -21 2 -4 6 -12 7 -20 2 -24 -15 -82 -14 -113 1 -19 10
-32 12 -36 5 -3 -5 -22 -12 -40 -15 -26 -4 -30 -3 -15 4 16 7 12 9 -20 10 -22
0 -67 2 -100 4 -33 2 -37 2 -10 0 82 -7 70 -18 -20 -20 -70 -1 -85 2 -85 14 0
12 -7 14 -27 8 -15 -3 -31 -12 -35 -18 -6 -9 -8 -9 -8 1 0 6 -7 12 -15 12 -8
0 -15 -4 -15 -10 0 -5 -5 -10 -11 -10 -5 0 -7 4 -4 10 6 10 -9 15 -30 10 -5
-1 -23 -2 -40 -2 -21 1 -25 -2 -15 -8 9 -6 10 -10 3 -10 -6 0 -14 4 -17 9 -9
14 -137 12 -155 -2 -8 -7 -12 -7 -9 -2 5 8 -28 11 -100 10 -59 0 -111 1 -115
3 -5 2 -31 6 -58 7 -36 3 -48 1 -43 -8 5 -9 4 -9 -6 0 -13 12 -43 7 -35 -7 2
-4 -8 -5 -23 -2 -24 5 -25 6 -7 14 13 5 8 6 -15 2 -19 -4 -37 -9 -40 -13 -11
-13 -32 -11 -27 3 7 18 -21 15 -35 -5 -8 -11 -9 -10 -4 5 5 16 2 18 -21 13
-16 -3 -42 -9 -59 -15 -29 -9 -31 -8 -27 12 4 17 3 18 -6 6 -6 -8 -11 -10 -11
-5 0 6 -8 1 -17 -10 -13 -17 -15 -17 -9 -2 5 15 1 17 -22 15 -15 -2 -36 -9
-47 -15 -12 -6 -71 -9 -150 -8 -128 3 -164 7 -187 21 -8 5 -9 2 -5 -9 5 -14 1
-17 -22 -15 -15 1 -28 7 -27 13 1 5 -3 10 -9 10 -5 0 -9 -6 -9 -12 1 -7 -3
-13 -8 -13 -6 0 -8 9 -5 20 3 11 1 20 -4 20 -5 0 -9 -6 -9 -12 0 -9 -4 -8 -10
2 -8 12 -10 11 -10 -7 0 -18 -6 -23 -27 -23 -21 0 -24 3 -13 9 8 6 18 7 22 5
4 -3 8 2 8 11 0 12 -5 13 -17 7 -10 -5 -31 -7 -48 -6 -16 2 -33 -2 -37 -9 -6
-9 -8 -8 -8 3 0 13 -1 13 -10 0 -5 -8 -10 -10 -10 -3 0 7 -13 10 -32 7 -53 -6
-185 -4 -202 2 -11 4 -16 0 -17 -12 0 -11 -3 -14 -6 -6 -2 6 -11 12 -19 12 -9
0 -12 4 -9 10 4 7 -3 7 -20 0 -15 -6 -31 -8 -35 -5 -5 3 -14 -3 -20 -12 -7
-12 -10 -13 -7 -3 2 8 -2 20 -8 27 -15 14 -57 13 -51 -2 6 -16 -16 -30 -44
-29 -45 2 -51 4 -45 14 3 6 -1 10 -10 10 -9 0 -13 -4 -10 -10 4 -6 -1 -7 -10
-3 -10 3 -21 0 -26 -8 -7 -11 -9 -11 -9 4 0 9 -5 17 -11 17 -5 0 -7 -4 -4 -10
3 -6 1 -10 -4 -10 -6 0 -11 -4 -11 -10 0 -7 1018 -10 3035 -10 l3035 0 -2 702
c-3 632 -5 703 -19 706 -9 1 -16 -4 -16 -13z m-5809 -1361 c3 -8 2 -12 -4 -9
-6 3 -10 1 -10 -6 0 -7 -2 -10 -5 -7 -5 5 4 38 10 38 2 0 6 -7 9 -16z m5243
-9 c52 2 90 -1 87 -6 -3 -5 -48 -9 -100 -9 -83 0 -94 2 -94 18 0 10 3 13 8 6
4 -7 40 -10 99 -9z m418 -5 c15 -6 11 -8 -16 -7 -21 1 -35 5 -32 10 5 9 22 8
48 -3z m-1882 -7 c-7 -2 -19 -2 -25 0 -7 3 -2 5 12 5 14 0 19 -2 13 -5z m1124
1 c-3 -3 -12 -4 -19 -1 -8 3 -5 6 6 6 11 1 17 -2 13 -5z"/>
  <path d="M550 1490 c0 -5 5 -10 11 -10 5 0 7 5 4 10 -3 6 -8 10 -11 10 -2 0
-4 -4 -4 -10z"/>
  <path d="M4759 1439 c-7 -10 -23 -20 -37 -24 -19 -5 -22 -8 -12 -20 9 -11 9
-15 1 -15 -12 0 -5 -46 10 -66 5 -6 5 -15 1 -19 -4 -5 -2 -5 4 -2 7 4 17 1 23
-7 9 -11 9 -15 -1 -19 -7 -3 19 -4 59 -3 39 0 71 3 70 6 -1 3 4 15 11 27 13
24 5 64 -9 42 -4 -8 -4 -16 2 -19 5 -4 2 -15 -7 -26 -11 -13 -14 -14 -11 -3 4
12 -2 15 -23 14 -16 -1 -35 -6 -42 -13 -10 -8 -20 -8 -38 1 -19 10 -26 22 -28
53 -2 34 2 44 27 67 20 18 42 27 63 27 25 0 29 -3 18 -10 -9 -6 -10 -10 -3
-10 18 0 25 18 11 27 -23 15 -76 10 -89 -8z"/>
  <path d="M4718 1443 c7 -3 16 -2 19 1 4 3 -2 6 -13 5 -11 0 -14 -3 -6 -6z"/>
  <path d="M4889 1409 c0 -8 -2 -22 -4 -31 -2 -11 2 -15 11 -11 7 3 12 13 11 24
-4 23 -17 37 -18 18z"/>
  <path d="M4793 1315 c-20 -22 -15 -30 5 -12 10 10 22 14 27 10 4 -5 5 -2 1 5
-9 15 -18 15 -33 -3z"/>
  <path d="M75 270 c-4 -6 6 -10 22 -10 22 0 25 2 13 10 -19 12 -27 12 -35 0z"/>
  <path d="M16 247 c3 -10 9 -15 12 -12 3 3 0 11 -7 18 -10 9 -11 8 -5 -6z"/>
  <path d="M396 252 c-3 -5 1 -9 9 -9 8 0 15 4 15 9 0 4 -4 8 -9 8 -6 0 -12 -4
-15 -8z"/>
  <path d="M430 250 c0 -6 7 -10 15 -10 8 0 15 2 15 4 0 2 -7 6 -15 10 -8 3 -15
1 -15 -4z"/>
  <path d="M470 252 c0 -5 7 -9 15 -9 8 0 15 4 15 9 0 4 -7 8 -15 8 -8 0 -15 -4
-15 -8z"/>
  <path d="M520 250 c-8 -5 -10 -10 -5 -10 6 0 17 5 25 10 8 5 11 10 5 10 -5 0
-17 -5 -25 -10z"/>
  <path d="M710 248 c0 -4 7 -8 15 -8 8 0 15 4 15 8 0 5 -7 9 -15 9 -8 0 -15 -4
-15 -9z"/>
  <path d="M750 252 c0 -5 7 -9 15 -9 8 0 15 4 15 9 0 4 -7 8 -15 8 -8 0 -15 -4
-15 -8z"/>
  <path d="M1045 250 c3 -5 8 -10 11 -10 2 0 4 5 4 10 0 6 -5 10 -11 10 -5 0 -7
-4 -4 -10z"/>
  <path d="M1070 249 c0 -5 9 -9 20 -9 11 0 20 2 20 4 0 2 -9 6 -20 9 -11 3 -20
1 -20 -4z"/>
  <path d="M5350 249 c0 -5 12 -9 27 -9 30 0 27 9 -6 15 -11 2 -21 0 -21 -6z"/>
  <path d="M5997 253 c-10 -9 -9 -33 1 -33 4 0 8 9 8 20 0 23 0 22 -9 13z"/>
  <path d="M798 243 c6 -2 18 -2 25 0 6 3 1 5 -13 5 -14 0 -19 -2 -12 -5z"/>
  <path d="M2328 243 c7 -3 16 -2 19 1 4 3 -2 6 -13 5 -11 0 -14 -3 -6 -6z"/>
  <path d="M2438 243 c7 -3 16 -2 19 1 4 3 -2 6 -13 5 -11 0 -14 -3 -6 -6z"/>
  <path d="M884 223 c10 -11 36 -12 36 -2 0 5 -10 9 -22 9 -12 0 -18 -3 -14 -7z"/>
  <path d="M938 223 c7 -3 16 -2 19 1 4 3 -2 6 -13 5 -11 0 -14 -3 -6 -6z"/>
  <path d="M2650 222 c0 -4 14 -9 30 -10 17 -1 30 1 30 6 0 4 -13 9 -30 10 -16
1 -30 -1 -30 -6z"/>
  <path d="M2740 218 c0 -4 7 -8 15 -8 8 0 15 4 15 8 0 5 -7 9 -15 9 -8 0 -15
-4 -15 -9z"/>
  <path d="M405 210 c3 -5 10 -10 16 -10 5 0 9 5 9 10 0 6 -7 10 -16 10 -8 0
-12 -4 -9 -10z"/>
  <path d="M440 208 c0 -4 11 -7 25 -6 14 1 25 6 25 10 0 4 -11 7 -25 6 -14 -1
-25 -6 -25 -10z"/>
  <path d="M500 208 c0 -4 9 -8 20 -8 11 0 20 4 20 9 0 6 -9 9 -20 8 -11 -1 -20
-5 -20 -9z"/>
  <path d="M1050 190 c0 -5 7 -10 15 -10 8 0 15 5 15 10 0 6 -7 10 -15 10 -8 0
-15 -4 -15 -10z"/>
  <path d="M1330 190 c0 -6 7 -10 15 -10 8 0 15 2 15 4 0 2 -7 6 -15 10 -8 3
-15 1 -15 -4z"/>
  <path d="M1103 183 c9 -2 25 -2 35 0 9 3 1 5 -18 5 -19 0 -27 -2 -17 -5z"/>
</g>
</g>
</svg>
